<svg width="1920" height="487" viewBox="0 0 1920 487" fill="none" xmlns="http://www.w3.org/2000/svg">
<g clip-path="url(#clip0_906_202)">
<g opacity="0.5">
<path d="M1472.44 0.896484L1305.46 124.463L1088.86 105.09L661.471 280.458L432.739 111.198L239.499 254.195L0.652687 77.4435L0.0546875 78.2385L239.509 255.431L432.749 112.435L661.339 281.6L1089.03 106.1L1305.75 125.485L1472.45 2.13548L1730.32 192.958L1919.14 53.2305L1918.54 52.4355L1730.3 191.72L1472.44 0.896484Z" fill="url(#paint0_linear_906_202)"/>
<path d="M1468.97 10.4951L1302.54 133.925L1081.6 110.943L659.56 282.6L426.46 117.383L237.478 258.47L0.638359 86.6751L0.0683594 87.4501L237.488 259.665L426.478 118.565L659.433 283.7L1081.75 111.93L1302.82 134.927L1468.97 11.6901L1725.79 200.187L1919.12 60.7471L1918.55 59.9701L1725.8 198.998L1468.97 10.4951V10.4951Z" fill="url(#paint1_linear_906_202)"/>
<path d="M1465.5 20.0938L1721.3 206.277L1918.6 67.5067L1919.14 68.2637L1721.3 207.424L1465.5 21.2507L1299.9 144.351L1074.48 117.743L657.527 285.791L420.202 124.715L235.465 263.898L0.0800781 96.6628L0.625078 95.9077L235.45 262.745L420.173 123.571L657.64 284.743L1074.34 116.793L1299.64 143.385L1465.5 20.0938Z" fill="url(#paint2_linear_906_202)"/>
<path d="M1462 29.6904L1296.7 152.845L1067.05 122.643L655.7 286.883L413.866 129.753L233.42 267.018L0.611797 105.14L0.0917969 105.874L233.442 268.13L413.926 130.854L655.62 287.89L1067.19 123.563L1296.96 153.783L1462.02 30.8054L1716.75 214.651L1919.1 75.7784L1918.6 75.0414L1716.8 213.551L1462 29.6904Z" fill="url(#paint3_linear_906_202)"/>
<path d="M1458.54 39.2901L1712.24 220.83L1918.6 82.5761L1919.1 83.2931L1712.25 221.883L1458.57 40.3631L1294.07 163.216L1059.94 129.386L653.745 289.993L407.685 136.995L231.421 272.362L0.107422 115.086L0.600422 114.372L231.39 271.292L407.601 135.94L653.803 289.026L1059.81 128.496L1293.81 162.308L1458.55 39.2881L1458.54 39.2901Z" fill="url(#paint4_linear_906_202)"/>
<path d="M1455.06 48.8877L1290.9 171.771L1052.55 134.348L651.893 291.168L401.325 142.126L229.372 275.569L0.586141 123.605L0.119141 124.298L229.4 276.596L401.378 143.134L651.806 292.094L1052.64 135.208L1291.11 172.65L1455.08 49.9207L1707.71 229.117L1919.07 90.8167L1918.61 90.1207L1707.73 228.116L1455.06 48.8957V48.8877Z" fill="url(#paint5_linear_906_202)"/>
<path d="M1451.6 58.4854L1703.22 235.382L1918.62 97.6474L1919.06 98.3214L1703.19 236.351L1451.59 59.4794L1288.17 182.082L1045.35 141.027L649.901 294.194L395.105 149.274L227.38 280.828L0.132812 133.51L0.574813 132.84L227.335 279.843L395.031 148.31L649.965 293.31L1045.28 140.2L1287.98 181.233L1451.6 58.4854Z" fill="url(#paint6_linear_906_202)"/>
<path d="M1448.1 68.085L1285.05 190.695L1038 146.051L648.049 295.449L388.747 154.494L225.307 284.117L0.561531 142.071L0.144531 142.721L225.355 285.063L388.825 155.417L648.002 296.296L1038.1 146.848L1285.28 191.514L1448.15 69.038L1698.69 243.584L1919.06 105.836L1918.66 105.186L1698.7 242.661L1448.1 68.085Z" fill="url(#paint7_linear_906_202)"/>
<path d="M1444.64 77.6807L1694.18 249.935L1918.64 112.72L1919.04 113.348L1694.16 250.818L1444.66 78.5947L1282.33 200.945L1030.81 152.668L646.083 298.398L382.551 161.558L223.334 289.296L0.158203 151.931L0.550203 151.304L223.277 288.401L382.463 160.688L646.131 297.591L1030.73 151.904L1282.13 200.159L1444.63 77.6827L1444.64 77.6807Z" fill="url(#paint8_linear_906_202)"/>
<path d="M1441.16 87.2803L1279.23 209.62L1023.48 157.754L644.214 299.73L376.181 166.86L221.251 292.664L0.537922 160.537L0.169922 161.141L221.311 293.526L376.273 167.696L644.173 300.499L1023.53 158.487L1279.4 210.377L1441.18 88.1503L1689.63 258.05L1919.03 120.86L1918.66 120.256L1689.66 257.209L1441.16 87.2793V87.2803Z" fill="url(#paint9_linear_906_202)"/>
<path d="M1437.7 96.8779L1685.15 264.488L1918.67 127.796L1919.02 128.376L1685.12 265.286L1437.7 97.7109L1276.47 219.809L1016.25 164.309L642.266 302.601L369.996 173.838L219.289 297.761L0.181641 170.353L0.525641 169.771L219.222 296.941L369.897 173.046L642.297 301.871L1016.2 163.608L1276.3 219.084L1437.7 96.8779Z" fill="url(#paint10_linear_906_202)"/>
<path d="M1434.2 106.476L1273.4 228.546L1008.94 169.459L640.38 304.009L363.613 179.227L217.193 301.212L0.513359 179.004L0.193359 179.564L217.265 301.994L363.717 179.981L640.354 304.704L1008.98 170.129L1273.55 229.239L1434.25 107.267L1680.6 272.521L1919 135.891L1918.67 135.335L1680.62 271.765L1434.22 106.479L1434.2 106.476Z" fill="url(#paint11_linear_906_202)"/>
<path d="M1430.74 116.073L1676.1 279.035L1918.68 142.869L1918.98 143.401L1676.08 279.751L1430.76 116.823L1270.63 238.669L1001.71 175.947L638.445 306.805L357.438 186.121L215.243 306.224L0.205078 188.773L0.502078 188.237L215.167 305.487L357.331 185.4L638.465 306.14L1001.67 175.303L1270.47 237.999L1430.73 116.064L1430.74 116.073Z" fill="url(#paint12_linear_906_202)"/>
<path d="M1427.26 125.67L1267.56 247.472L994.394 181.164L636.539 308.288L351.039 191.592L213.139 309.76L0.500562 197.47L0.226562 197.98L213.229 310.456L351.169 192.262L636.543 308.906L994.443 181.766L1267.7 248.1L1427.3 126.38L1671.57 286.985L1918.99 150.911L1918.69 150.404L1671.6 286.3L1427.27 125.66L1427.26 125.67Z" fill="url(#paint13_linear_906_202)"/>
<path fill-rule="evenodd" clip-rule="evenodd" d="M1423.8 135.271L1667.08 293.585L1918.71 157.946L1918.98 158.426L1667.05 294.222L1423.82 135.943L1264.79 257.533L987.172 187.59L634.635 311.012L344.882 198.408L338.498 203.962L632.721 312.567L979.867 192.87L1261.74 266.4L1420.31 144.868L1662.55 300.86L1918.71 165.484L1918.96 165.939L1662.52 301.459L1420.34 145.499L1261.84 266.963L979.878 193.409L632.704 313.115L338.602 204.551L332.258 210.158L630.808 314.708L972.598 198.724L1258.82 275.865L1416.84 154.465L1658.04 308.136L1918.74 173.023L1918.97 173.452L1658 308.692L1416.87 155.057L1258.93 276.394L972.614 199.228L630.804 315.218L332.322 210.693L326.022 216.353L628.902 316.846L965.339 204.576L1255.91 285.329L1413.38 164.064L1653.52 315.408L1918.74 180.561L1918.94 180.963L1653.49 315.929L1413.39 164.616L1255.99 285.816L965.332 205.04L628.902 317.322L326.04 216.836L319.792 222.549L626.977 318.984L958.057 210.428L1253 294.791L1409.9 173.659L1649 322.68L1918.75 188.098L1918.95 188.474L1648.99 323.174L1409.94 174.184L1253.1 295.266L958.087 210.879L627 319.437L319.778 222.991L313.578 228.755L625.062 321.12L950.788 216.281L1250.07 304.255L1406.42 183.257L1644.47 329.955L1918.75 195.637L1918.92 195.986L1644.45 330.4L1406.45 183.73L1250.15 304.684L950.794 216.688L625.068 321.528L313.478 229.122L307.353 234.938L623.151 323.26L943.521 222.133L1247.15 313.718L1402.95 192.854L1639.95 337.227L1918.75 203.174L1918.91 203.495L1639.91 337.633L1402.95 193.288L1247.21 314.114L943.514 222.507L623.148 323.632L307.188 235.265L301.134 241.133L621.229 325.398L936.242 227.986L1244.23 323.183L1399.46 202.452L1635.42 344.503L1918.76 210.715L1918.9 211.008L1635.4 344.872L1399.48 202.849L1244.28 323.546L936.232 228.329L621.226 325.739L300.902 241.411L294.928 247.329L619.312 327.538L928.969 233.842L1241.31 332.649L1396 212.051L1630.9 351.775L1918.76 218.254L1918.89 218.52L1630.89 352.107L1396.01 212.408L1241.37 332.977L928.967 234.15L619.332 327.84L294.694 247.571L291.191 251.04L288.743 253.523L617.41 329.675L921.707 239.693L1238.4 342.113L1392.52 221.646L1626.39 359.046L1918.79 225.79L1918.89 226.029L1626.39 359.342L1392.55 221.962L1238.45 342.402L921.704 239.964L617.418 329.943L288.528 253.739L282.622 259.726L615.497 331.809L914.438 245.543L1235.48 351.575L1389.05 231.242L1621.88 366.318L1918.78 233.318L1918.88 233.519L1621.86 366.557L1389.06 231.499L1235.52 351.813L914.423 245.762L615.496 332.027L282.42 259.899L279.398 262.963L276.552 265.92L613.575 333.928L907.155 251.376L1232.57 361.041L1385.57 240.84L1617.37 373.593L1918.8 240.87L1918.88 241.051L1617.34 373.814L1385.6 241.081L1232.6 361.265L907.15 251.605L613.582 334.154L276.388 266.113L268.074 274.749L257.358 286.179L188.898 361.266L0.327516 308.488L0.381516 308.298L188.844 361.041L247.596 296.602L190.936 357.032L0.321516 299.281L0.389516 299.061L190.867 356.77L255.837 287.476L192.965 352.798L0.313516 290.071L0.395516 289.821L192.889 352.494L264.054 278.548L194.994 348.559L0.305516 280.865L0.403516 280.588L194.914 348.222L269.11 273.006L269.97 272.063L197.02 344.327L0.299516 271.658L0.413516 271.352L196.938 343.951L274.3 267.316L275.57 265.923L199.047 340.094L0.288516 262.447L0.420516 262.115L198.961 339.676L290.889 250.573L201.073 335.86L0.279516 253.241L0.429516 252.881L200.986 335.404L300.086 241.301L203.096 331.628L0.269516 244.031L0.439516 243.645L203.01 331.13L309.328 232.116L205.122 327.393L0.259516 234.821L0.449516 234.409L205.037 326.856L318.797 222.844L207.148 323.161L0.249516 225.611L0.459516 225.174L207.062 322.581L328.227 213.717L209.172 318.925L0.239516 216.402L0.469516 215.941L209.088 318.309L337.792 204.576L211.196 314.692L0.228516 207.193L0.480516 206.706L211.114 314.036L344.77 197.775L634.635 310.429L987.135 187.019L1264.65 256.937L1423.8 135.271ZM275.722 265.774L275.822 265.796L280.482 261.179L280.79 260.852L275.713 265.773L275.722 265.774ZM272.754 269.304L272.671 269.394L273.053 269.007L272.753 269.303L272.754 269.304Z" fill="url(#paint14_linear_906_202)"/>
</g>
<mask id="mask0_906_202" style="mask-type:alpha" maskUnits="userSpaceOnUse" x="0" y="308" width="1920" height="143">
<path opacity="0.4" d="M0 308H1920V451H0V308Z" fill="url(#paint15_linear_906_202)"/>
</mask>
<g mask="url(#mask0_906_202)">
<path opacity="0.5" d="M-462.5 492.997H2387.83M-296.057 462.253H2221.38M-164.43 437.946H2089.76M-57.7219 418.236H1983.05M30.5261 401.936H1894.8M104.727 388.234H1820.6M168 376.548H1757.35M222.56 366.474H1702.77M270.12 357.684H1655.22M311.934 349.962H1613.4M348.985 343.12H1576.34M382.04 337.017H1543.3M411.722 331.53H1513.6M438.504 326.583H1486.8M462.8 322.099H1462.5M484.97 318.006H1440.34M505.237 314.262H1420.07M523.862 310.82H1401.45M541.03 307.646H1384.28M556.905 304.716H1368.4M1316.45 302L2448.58 533.107M1279.2 302L2292.16 533.107M1241.97 302L2135.75 533.107M1204.73 302L1979.35 533.107M1167.5 302L1822.94 533.107M1130.25 302L1666.52 533.107M1093 302L1510.1 533.107M1055.77 302L1353.7 533.107M1018.53 302L1197.28 533.107M981.282 302L1040.87 533.107M944.046 302L884.462 533.107M906.797 302L728.047 533.107M795.075 302L258.8 533.107M757.838 302L102.395 533.107M720.6 302L-54.0199 533.107M683.353 302L-210.425 533.107M646.116 302L-366.84 533.107M608.88 302L-523.256 533.107M869.56 302L571.63 533.107M832.323 302L415.226 533.107M571.63 302H1353.7L2605 533.107H-679.672L571.63 302Z" stroke="url(#paint16_linear_906_202)" stroke-miterlimit="10"/>
</g>
<g filter="url(#filter0_f_906_202)">
<path d="M980.5 383C1369.58 383 1685 353.227 1685 316.5C1685 279.773 1369.58 250 980.5 250C591.415 250 276 279.773 276 316.5C276 353.227 591.415 383 980.5 383Z" fill="#040D2F"/>
</g>
<g opacity="0.3" filter="url(#filter1_f_906_202)">
<path d="M960.5 377C1123.7 377 1256 340.735 1256 296C1256 251.265 1123.7 215 960.5 215C797.3 215 665 251.265 665 296C665 340.735 797.3 377 960.5 377Z" fill="#040D2F"/>
</g>
<g clip-path="url(#clip1_906_202)">
<g opacity="0.5">
<path d="M1472.44 0.896484L1305.46 124.463L1088.86 105.09L661.471 280.458L432.739 111.198L239.499 254.195L0.652687 77.4435L0.0546875 78.2385L239.509 255.431L432.749 112.435L661.339 281.6L1089.03 106.1L1305.75 125.485L1472.45 2.13548L1730.32 192.958L1919.14 53.2305L1918.54 52.4355L1730.3 191.72L1472.44 0.896484Z" fill="url(#paint17_linear_906_202)"/>
<path d="M1468.97 10.4951L1302.54 133.925L1081.6 110.943L659.56 282.6L426.46 117.383L237.478 258.47L0.638359 86.6751L0.0683594 87.4501L237.488 259.665L426.478 118.565L659.433 283.7L1081.75 111.93L1302.82 134.927L1468.97 11.6901L1725.79 200.187L1919.12 60.7471L1918.55 59.9701L1725.8 198.998L1468.97 10.4951V10.4951Z" fill="url(#paint18_linear_906_202)"/>
<path d="M1465.5 20.0938L1721.3 206.277L1918.6 67.5067L1919.14 68.2637L1721.3 207.424L1465.5 21.2507L1299.9 144.351L1074.48 117.743L657.527 285.791L420.202 124.715L235.465 263.898L0.0800781 96.6628L0.625078 95.9077L235.45 262.745L420.173 123.571L657.64 284.743L1074.34 116.793L1299.64 143.385L1465.5 20.0938Z" fill="url(#paint19_linear_906_202)"/>
<path d="M1462 29.6904L1296.7 152.845L1067.05 122.643L655.7 286.883L413.866 129.753L233.42 267.018L0.611797 105.14L0.0917969 105.874L233.442 268.13L413.926 130.854L655.62 287.89L1067.19 123.563L1296.96 153.783L1462.02 30.8054L1716.75 214.651L1919.1 75.7784L1918.6 75.0414L1716.8 213.551L1462 29.6904Z" fill="url(#paint20_linear_906_202)"/>
<path d="M1458.54 39.2901L1712.24 220.83L1918.6 82.5761L1919.1 83.2931L1712.25 221.883L1458.57 40.3631L1294.07 163.216L1059.94 129.386L653.745 289.993L407.685 136.995L231.421 272.362L0.107422 115.086L0.600422 114.372L231.39 271.292L407.601 135.94L653.803 289.026L1059.81 128.496L1293.81 162.308L1458.55 39.2881L1458.54 39.2901Z" fill="url(#paint21_linear_906_202)"/>
<path d="M1455.06 48.8877L1290.9 171.771L1052.55 134.348L651.893 291.168L401.325 142.126L229.372 275.569L0.586141 123.605L0.119141 124.298L229.4 276.596L401.378 143.134L651.806 292.094L1052.64 135.208L1291.11 172.65L1455.08 49.9207L1707.71 229.117L1919.07 90.8167L1918.61 90.1207L1707.73 228.116L1455.06 48.8957V48.8877Z" fill="url(#paint22_linear_906_202)"/>
<path d="M1451.6 58.4854L1703.22 235.382L1918.62 97.6474L1919.06 98.3214L1703.19 236.351L1451.59 59.4794L1288.17 182.082L1045.35 141.027L649.901 294.194L395.105 149.274L227.38 280.828L0.132812 133.51L0.574813 132.84L227.335 279.843L395.031 148.31L649.965 293.31L1045.28 140.2L1287.98 181.233L1451.6 58.4854Z" fill="url(#paint23_linear_906_202)"/>
<path d="M1448.1 68.085L1285.05 190.695L1038 146.051L648.049 295.449L388.747 154.494L225.307 284.117L0.561531 142.071L0.144531 142.721L225.355 285.063L388.825 155.417L648.002 296.296L1038.1 146.848L1285.28 191.514L1448.15 69.038L1698.69 243.584L1919.06 105.836L1918.66 105.186L1698.7 242.661L1448.1 68.085Z" fill="url(#paint24_linear_906_202)"/>
<path d="M1444.64 77.6807L1694.18 249.935L1918.64 112.72L1919.04 113.348L1694.16 250.818L1444.66 78.5947L1282.33 200.945L1030.81 152.668L646.083 298.398L382.551 161.558L223.334 289.296L0.158203 151.931L0.550203 151.304L223.277 288.401L382.463 160.688L646.131 297.591L1030.73 151.904L1282.13 200.159L1444.63 77.6827L1444.64 77.6807Z" fill="url(#paint25_linear_906_202)"/>
<path d="M1441.16 87.2803L1279.23 209.62L1023.48 157.754L644.214 299.73L376.181 166.86L221.251 292.664L0.537922 160.537L0.169922 161.141L221.311 293.526L376.273 167.696L644.173 300.499L1023.53 158.487L1279.4 210.377L1441.18 88.1503L1689.63 258.05L1919.03 120.86L1918.66 120.256L1689.66 257.209L1441.16 87.2793V87.2803Z" fill="url(#paint26_linear_906_202)"/>
<path d="M1437.7 96.8779L1685.15 264.488L1918.67 127.796L1919.02 128.376L1685.12 265.286L1437.7 97.7109L1276.47 219.809L1016.25 164.309L642.266 302.601L369.996 173.838L219.289 297.761L0.181641 170.353L0.525641 169.771L219.222 296.941L369.897 173.046L642.297 301.871L1016.2 163.608L1276.3 219.084L1437.7 96.8779Z" fill="url(#paint27_linear_906_202)"/>
<path d="M1434.2 106.476L1273.4 228.546L1008.94 169.459L640.38 304.009L363.613 179.227L217.193 301.212L0.513359 179.004L0.193359 179.564L217.265 301.994L363.717 179.981L640.354 304.704L1008.98 170.129L1273.55 229.239L1434.25 107.267L1680.6 272.521L1919 135.891L1918.67 135.335L1680.62 271.765L1434.22 106.479L1434.2 106.476Z" fill="url(#paint28_linear_906_202)"/>
<path d="M1430.74 116.073L1676.1 279.035L1918.68 142.869L1918.98 143.401L1676.08 279.751L1430.76 116.823L1270.63 238.669L1001.71 175.947L638.445 306.805L357.438 186.121L215.243 306.224L0.205078 188.773L0.502078 188.237L215.167 305.487L357.331 185.4L638.465 306.14L1001.67 175.303L1270.47 237.999L1430.73 116.064L1430.74 116.073Z" fill="url(#paint29_linear_906_202)"/>
<path d="M1427.26 125.67L1267.56 247.472L994.394 181.164L636.539 308.288L351.039 191.592L213.139 309.76L0.500562 197.47L0.226562 197.98L213.229 310.456L351.169 192.262L636.543 308.906L994.443 181.766L1267.7 248.1L1427.3 126.38L1671.57 286.985L1918.99 150.911L1918.69 150.404L1671.6 286.3L1427.27 125.66L1427.26 125.67Z" fill="url(#paint30_linear_906_202)"/>
<path fill-rule="evenodd" clip-rule="evenodd" d="M1423.8 135.271L1667.08 293.585L1918.71 157.946L1918.98 158.426L1667.05 294.222L1423.82 135.943L1264.79 257.533L987.172 187.59L634.635 311.012L344.882 198.408L338.498 203.962L632.721 312.567L979.867 192.87L1261.74 266.4L1420.31 144.868L1662.55 300.86L1918.71 165.484L1918.96 165.939L1662.52 301.459L1420.34 145.499L1261.84 266.963L979.878 193.409L632.704 313.115L338.602 204.551L332.258 210.158L630.808 314.708L972.598 198.724L1258.82 275.865L1416.84 154.465L1658.04 308.136L1918.74 173.023L1918.97 173.452L1658 308.692L1416.87 155.057L1258.93 276.394L972.614 199.228L630.804 315.218L332.322 210.693L326.022 216.353L628.902 316.846L965.339 204.576L1255.91 285.329L1413.38 164.064L1653.52 315.408L1918.74 180.561L1918.94 180.963L1653.49 315.929L1413.39 164.616L1255.99 285.816L965.332 205.04L628.902 317.322L326.04 216.836L319.792 222.549L626.977 318.984L958.057 210.428L1253 294.791L1409.9 173.659L1649 322.68L1918.75 188.098L1918.95 188.474L1648.99 323.174L1409.94 174.184L1253.1 295.266L958.087 210.879L627 319.437L319.778 222.991L313.578 228.755L625.062 321.12L950.788 216.281L1250.07 304.255L1406.42 183.257L1644.47 329.955L1918.75 195.637L1918.92 195.986L1644.45 330.4L1406.45 183.73L1250.15 304.684L950.794 216.688L625.068 321.528L313.478 229.122L307.353 234.938L623.151 323.26L943.521 222.133L1247.15 313.718L1402.95 192.854L1639.95 337.227L1918.75 203.174L1918.91 203.495L1639.91 337.633L1402.95 193.288L1247.21 314.114L943.514 222.507L623.148 323.632L307.188 235.265L301.134 241.133L621.229 325.398L936.242 227.986L1244.23 323.183L1399.46 202.452L1635.42 344.503L1918.76 210.715L1918.9 211.008L1635.4 344.872L1399.48 202.849L1244.28 323.546L936.232 228.329L621.226 325.739L300.902 241.411L294.928 247.329L619.312 327.538L928.969 233.842L1241.31 332.649L1396 212.051L1630.9 351.775L1918.76 218.254L1918.89 218.52L1630.89 352.107L1396.01 212.408L1241.37 332.977L928.967 234.15L619.332 327.84L294.694 247.571L291.191 251.04L288.743 253.523L617.41 329.675L921.707 239.693L1238.4 342.113L1392.52 221.646L1626.39 359.046L1918.79 225.79L1918.89 226.029L1626.39 359.342L1392.55 221.962L1238.45 342.402L921.704 239.964L617.418 329.943L288.528 253.739L282.622 259.726L615.497 331.809L914.438 245.543L1235.48 351.575L1389.05 231.242L1621.88 366.318L1918.78 233.318L1918.88 233.519L1621.86 366.557L1389.06 231.499L1235.52 351.813L914.423 245.762L615.496 332.027L282.42 259.899L279.398 262.963L276.552 265.92L613.575 333.928L907.155 251.376L1232.57 361.041L1385.57 240.84L1617.37 373.593L1918.8 240.87L1918.88 241.051L1617.34 373.814L1385.6 241.081L1232.6 361.265L907.15 251.605L613.582 334.154L276.388 266.113L268.074 274.749L257.358 286.179L188.898 361.266L0.327516 308.488L0.381516 308.298L188.844 361.041L247.596 296.602L190.936 357.032L0.321516 299.281L0.389516 299.061L190.867 356.77L255.837 287.476L192.965 352.798L0.313516 290.071L0.395516 289.821L192.889 352.494L264.054 278.548L194.994 348.559L0.305516 280.865L0.403516 280.588L194.914 348.222L269.11 273.006L269.97 272.063L197.02 344.327L0.299516 271.658L0.413516 271.352L196.938 343.951L274.3 267.316L275.57 265.923L199.047 340.094L0.288516 262.447L0.420516 262.115L198.961 339.676L290.889 250.573L201.073 335.86L0.279516 253.241L0.429516 252.881L200.986 335.404L300.086 241.301L203.096 331.628L0.269516 244.031L0.439516 243.645L203.01 331.13L309.328 232.116L205.122 327.393L0.259516 234.821L0.449516 234.409L205.037 326.856L318.797 222.844L207.148 323.161L0.249516 225.611L0.459516 225.174L207.062 322.581L328.227 213.717L209.172 318.925L0.239516 216.402L0.469516 215.941L209.088 318.309L337.792 204.576L211.196 314.692L0.228516 207.193L0.480516 206.706L211.114 314.036L344.77 197.775L634.635 310.429L987.135 187.019L1264.65 256.937L1423.8 135.271ZM275.722 265.774L275.822 265.796L280.482 261.179L280.79 260.852L275.713 265.773L275.722 265.774ZM272.754 269.304L272.671 269.394L273.053 269.007L272.753 269.303L272.754 269.304Z" fill="url(#paint31_linear_906_202)"/>
</g>
<mask id="mask1_906_202" style="mask-type:alpha" maskUnits="userSpaceOnUse" x="0" y="308" width="1920" height="143">
<path opacity="0.4" d="M0 308H1920V451H0V308Z" fill="url(#paint32_linear_906_202)"/>
</mask>
<g mask="url(#mask1_906_202)">
<path opacity="0.5" d="M-462.5 492.997H2387.83M-296.057 462.253H2221.38M-164.43 437.946H2089.76M-57.7219 418.236H1983.05M30.5261 401.936H1894.8M104.727 388.234H1820.6M168 376.548H1757.35M222.56 366.474H1702.77M270.12 357.684H1655.22M311.934 349.962H1613.4M348.985 343.12H1576.34M382.04 337.017H1543.3M411.722 331.53H1513.6M438.504 326.583H1486.8M462.8 322.099H1462.5M484.97 318.006H1440.34M505.237 314.262H1420.07M523.862 310.82H1401.45M541.03 307.646H1384.28M556.905 304.716H1368.4M1316.45 302L2448.58 533.107M1279.2 302L2292.16 533.107M1241.97 302L2135.75 533.107M1204.73 302L1979.35 533.107M1167.5 302L1822.94 533.107M1130.25 302L1666.52 533.107M1093 302L1510.1 533.107M1055.77 302L1353.7 533.107M1018.53 302L1197.28 533.107M981.282 302L1040.87 533.107M944.046 302L884.462 533.107M906.797 302L728.047 533.107M795.075 302L258.8 533.107M757.838 302L102.395 533.107M720.6 302L-54.0199 533.107M683.353 302L-210.425 533.107M646.116 302L-366.84 533.107M608.88 302L-523.256 533.107M869.56 302L571.63 533.107M832.323 302L415.226 533.107M571.63 302H1353.7L2605 533.107H-679.672L571.63 302Z" stroke="url(#paint33_linear_906_202)" stroke-miterlimit="10"/>
</g>
<g filter="url(#filter2_f_906_202)">
<path d="M980.5 383C1369.58 383 1685 353.227 1685 316.5C1685 279.773 1369.58 250 980.5 250C591.415 250 276 279.773 276 316.5C276 353.227 591.415 383 980.5 383Z" fill="#040D2F"/>
</g>
<g opacity="0.3" filter="url(#filter3_f_906_202)">
<path d="M960.5 377C1123.7 377 1256 340.735 1256 296C1256 251.265 1123.7 215 960.5 215C797.3 215 665 251.265 665 296C665 340.735 797.3 377 960.5 377Z" fill="#040D2F"/>
</g>
</g>
</g>
<defs>
<filter id="filter0_f_906_202" x="172" y="146" width="1617" height="341" filterUnits="userSpaceOnUse" color-interpolation-filters="sRGB">
<feFlood flood-opacity="0" result="BackgroundImageFix"/>
<feBlend mode="normal" in="SourceGraphic" in2="BackgroundImageFix" result="shape"/>
<feGaussianBlur stdDeviation="52" result="effect1_foregroundBlur_906_202"/>
</filter>
<filter id="filter1_f_906_202" x="561" y="111" width="799" height="370" filterUnits="userSpaceOnUse" color-interpolation-filters="sRGB">
<feFlood flood-opacity="0" result="BackgroundImageFix"/>
<feBlend mode="normal" in="SourceGraphic" in2="BackgroundImageFix" result="shape"/>
<feGaussianBlur stdDeviation="52" result="effect1_foregroundBlur_906_202"/>
</filter>
<filter id="filter2_f_906_202" x="172" y="146" width="1617" height="341" filterUnits="userSpaceOnUse" color-interpolation-filters="sRGB">
<feFlood flood-opacity="0" result="BackgroundImageFix"/>
<feBlend mode="normal" in="SourceGraphic" in2="BackgroundImageFix" result="shape"/>
<feGaussianBlur stdDeviation="52" result="effect1_foregroundBlur_906_202"/>
</filter>
<filter id="filter3_f_906_202" x="561" y="111" width="799" height="370" filterUnits="userSpaceOnUse" color-interpolation-filters="sRGB">
<feFlood flood-opacity="0" result="BackgroundImageFix"/>
<feBlend mode="normal" in="SourceGraphic" in2="BackgroundImageFix" result="shape"/>
<feGaussianBlur stdDeviation="52" result="effect1_foregroundBlur_906_202"/>
</filter>
<linearGradient id="paint0_linear_906_202" x1="959.596" y1="0.896484" x2="959.596" y2="509.911" gradientUnits="userSpaceOnUse">
<stop stop-color="#01D1FF"/>
<stop offset="1" stop-color="#660DAC" stop-opacity="0"/>
</linearGradient>
<linearGradient id="paint1_linear_906_202" x1="959.595" y1="0.896117" x2="959.595" y2="509.91" gradientUnits="userSpaceOnUse">
<stop stop-color="#01D1FF"/>
<stop offset="1" stop-color="#660DAC" stop-opacity="0"/>
</linearGradient>
<linearGradient id="paint2_linear_906_202" x1="959.595" y1="0.896749" x2="959.595" y2="509.911" gradientUnits="userSpaceOnUse">
<stop stop-color="#01D1FF"/>
<stop offset="1" stop-color="#660DAC" stop-opacity="0"/>
</linearGradient>
<linearGradient id="paint3_linear_906_202" x1="959.595" y1="0.896427" x2="959.595" y2="509.91" gradientUnits="userSpaceOnUse">
<stop stop-color="#01D1FF"/>
<stop offset="1" stop-color="#660DAC" stop-opacity="0"/>
</linearGradient>
<linearGradient id="paint4_linear_906_202" x1="959.596" y1="0.896081" x2="959.596" y2="509.91" gradientUnits="userSpaceOnUse">
<stop stop-color="#01D1FF"/>
<stop offset="1" stop-color="#660DAC" stop-opacity="0"/>
</linearGradient>
<linearGradient id="paint5_linear_906_202" x1="959.595" y1="0.896698" x2="959.595" y2="509.911" gradientUnits="userSpaceOnUse">
<stop stop-color="#01D1FF"/>
<stop offset="1" stop-color="#660DAC" stop-opacity="0"/>
</linearGradient>
<linearGradient id="paint6_linear_906_202" x1="959.596" y1="0.896351" x2="959.596" y2="509.91" gradientUnits="userSpaceOnUse">
<stop stop-color="#01D1FF"/>
<stop offset="1" stop-color="#660DAC" stop-opacity="0"/>
</linearGradient>
<linearGradient id="paint7_linear_906_202" x1="959.597" y1="0.896961" x2="959.597" y2="509.911" gradientUnits="userSpaceOnUse">
<stop stop-color="#01D1FF"/>
<stop offset="1" stop-color="#660DAC" stop-opacity="0"/>
</linearGradient>
<linearGradient id="paint8_linear_906_202" x1="959.596" y1="0.896658" x2="959.596" y2="509.911" gradientUnits="userSpaceOnUse">
<stop stop-color="#01D1FF"/>
<stop offset="1" stop-color="#660DAC" stop-opacity="0"/>
</linearGradient>
<linearGradient id="paint9_linear_906_202" x1="959.596" y1="0.896298" x2="959.596" y2="509.91" gradientUnits="userSpaceOnUse">
<stop stop-color="#01D1FF"/>
<stop offset="1" stop-color="#660DAC" stop-opacity="0"/>
</linearGradient>
<linearGradient id="paint10_linear_906_202" x1="959.597" y1="0.896931" x2="959.597" y2="509.911" gradientUnits="userSpaceOnUse">
<stop stop-color="#01D1FF"/>
<stop offset="1" stop-color="#660DAC" stop-opacity="0"/>
</linearGradient>
<linearGradient id="paint11_linear_906_202" x1="959.595" y1="0.896591" x2="959.595" y2="509.911" gradientUnits="userSpaceOnUse">
<stop stop-color="#01D1FF"/>
<stop offset="1" stop-color="#660DAC" stop-opacity="0"/>
</linearGradient>
<linearGradient id="paint12_linear_906_202" x1="959.596" y1="0.896457" x2="959.596" y2="509.91" gradientUnits="userSpaceOnUse">
<stop stop-color="#01D1FF"/>
<stop offset="1" stop-color="#660DAC" stop-opacity="0"/>
</linearGradient>
<linearGradient id="paint13_linear_906_202" x1="959.596" y1="0.896169" x2="959.596" y2="509.91" gradientUnits="userSpaceOnUse">
<stop stop-color="#01D1FF"/>
<stop offset="1" stop-color="#660DAC" stop-opacity="0"/>
</linearGradient>
<linearGradient id="paint14_linear_906_202" x1="959.596" y1="0.896507" x2="959.596" y2="509.91" gradientUnits="userSpaceOnUse">
<stop stop-color="#01D1FF"/>
<stop offset="1" stop-color="#660DAC" stop-opacity="0"/>
</linearGradient>
<linearGradient id="paint15_linear_906_202" x1="960" y1="308" x2="960" y2="451" gradientUnits="userSpaceOnUse">
<stop stop-color="#1E1D58"/>
<stop offset="1" stop-color="#040D2F"/>
</linearGradient>
<linearGradient id="paint16_linear_906_202" x1="962.664" y1="302" x2="962.664" y2="533.107" gradientUnits="userSpaceOnUse">
<stop stop-color="#01D1FF"/>
<stop offset="1" stop-color="#660DAC"/>
</linearGradient>
<linearGradient id="paint17_linear_906_202" x1="959.596" y1="0.896484" x2="959.596" y2="509.911" gradientUnits="userSpaceOnUse">
<stop stop-color="#01D1FF"/>
<stop offset="1" stop-color="#660DAC" stop-opacity="0"/>
</linearGradient>
<linearGradient id="paint18_linear_906_202" x1="959.595" y1="0.896117" x2="959.595" y2="509.91" gradientUnits="userSpaceOnUse">
<stop stop-color="#01D1FF"/>
<stop offset="1" stop-color="#660DAC" stop-opacity="0"/>
</linearGradient>
<linearGradient id="paint19_linear_906_202" x1="959.595" y1="0.896749" x2="959.595" y2="509.911" gradientUnits="userSpaceOnUse">
<stop stop-color="#01D1FF"/>
<stop offset="1" stop-color="#660DAC" stop-opacity="0"/>
</linearGradient>
<linearGradient id="paint20_linear_906_202" x1="959.595" y1="0.896427" x2="959.595" y2="509.91" gradientUnits="userSpaceOnUse">
<stop stop-color="#01D1FF"/>
<stop offset="1" stop-color="#660DAC" stop-opacity="0"/>
</linearGradient>
<linearGradient id="paint21_linear_906_202" x1="959.596" y1="0.896081" x2="959.596" y2="509.91" gradientUnits="userSpaceOnUse">
<stop stop-color="#01D1FF"/>
<stop offset="1" stop-color="#660DAC" stop-opacity="0"/>
</linearGradient>
<linearGradient id="paint22_linear_906_202" x1="959.595" y1="0.896698" x2="959.595" y2="509.911" gradientUnits="userSpaceOnUse">
<stop stop-color="#01D1FF"/>
<stop offset="1" stop-color="#660DAC" stop-opacity="0"/>
</linearGradient>
<linearGradient id="paint23_linear_906_202" x1="959.596" y1="0.896351" x2="959.596" y2="509.91" gradientUnits="userSpaceOnUse">
<stop stop-color="#01D1FF"/>
<stop offset="1" stop-color="#660DAC" stop-opacity="0"/>
</linearGradient>
<linearGradient id="paint24_linear_906_202" x1="959.597" y1="0.896961" x2="959.597" y2="509.911" gradientUnits="userSpaceOnUse">
<stop stop-color="#01D1FF"/>
<stop offset="1" stop-color="#660DAC" stop-opacity="0"/>
</linearGradient>
<linearGradient id="paint25_linear_906_202" x1="959.596" y1="0.896658" x2="959.596" y2="509.911" gradientUnits="userSpaceOnUse">
<stop stop-color="#01D1FF"/>
<stop offset="1" stop-color="#660DAC" stop-opacity="0"/>
</linearGradient>
<linearGradient id="paint26_linear_906_202" x1="959.596" y1="0.896298" x2="959.596" y2="509.91" gradientUnits="userSpaceOnUse">
<stop stop-color="#01D1FF"/>
<stop offset="1" stop-color="#660DAC" stop-opacity="0"/>
</linearGradient>
<linearGradient id="paint27_linear_906_202" x1="959.597" y1="0.896931" x2="959.597" y2="509.911" gradientUnits="userSpaceOnUse">
<stop stop-color="#01D1FF"/>
<stop offset="1" stop-color="#660DAC" stop-opacity="0"/>
</linearGradient>
<linearGradient id="paint28_linear_906_202" x1="959.595" y1="0.896591" x2="959.595" y2="509.911" gradientUnits="userSpaceOnUse">
<stop stop-color="#01D1FF"/>
<stop offset="1" stop-color="#660DAC" stop-opacity="0"/>
</linearGradient>
<linearGradient id="paint29_linear_906_202" x1="959.596" y1="0.896457" x2="959.596" y2="509.91" gradientUnits="userSpaceOnUse">
<stop stop-color="#01D1FF"/>
<stop offset="1" stop-color="#660DAC" stop-opacity="0"/>
</linearGradient>
<linearGradient id="paint30_linear_906_202" x1="959.596" y1="0.896169" x2="959.596" y2="509.91" gradientUnits="userSpaceOnUse">
<stop stop-color="#01D1FF"/>
<stop offset="1" stop-color="#660DAC" stop-opacity="0"/>
</linearGradient>
<linearGradient id="paint31_linear_906_202" x1="959.596" y1="0.896507" x2="959.596" y2="509.91" gradientUnits="userSpaceOnUse">
<stop stop-color="#01D1FF"/>
<stop offset="1" stop-color="#660DAC" stop-opacity="0"/>
</linearGradient>
<linearGradient id="paint32_linear_906_202" x1="960" y1="308" x2="960" y2="451" gradientUnits="userSpaceOnUse">
<stop stop-color="#1E1D58"/>
<stop offset="1" stop-color="#040D2F"/>
</linearGradient>
<linearGradient id="paint33_linear_906_202" x1="962.664" y1="302" x2="962.664" y2="533.107" gradientUnits="userSpaceOnUse">
<stop stop-color="#01D1FF"/>
<stop offset="1" stop-color="#660DAC"/>
</linearGradient>
<clipPath id="clip0_906_202">
<rect width="1920" height="487" fill="white"/>
</clipPath>
<clipPath id="clip1_906_202">
<rect width="1920" height="487" fill="white"/>
</clipPath>
</defs>
</svg>
