<svg xmlns="http://www.w3.org/2000/svg" xmlns:xlink="http://www.w3.org/1999/xlink" width="72" height="72" fill="none" xmlns:v="https://vecta.io/nano"><path d="M40 8H8a2 2 0 0 0-2 2v29a2 2 0 0 0 2 2h32a2 2 0 0 0 2-2V10a2 2 0 0 0-2-2z" fill="url(#A)"/><path opacity=".8" d="M62 19H22a4 4 0 0 0-4 4v36.185a4 4 0 0 0 4 4.001h40A4 4 0 0 0 66 59.186V23A4 4 0 0 0 62 19z" fill="url(#B)"/><g opacity=".3"><path d="M25.346 25.692c.743 0 1.346-.603 1.346-1.346S26.1 23 25.346 23 24 23.603 24 24.346s.603 1.346 1.346 1.346z" fill="url(#C)"/><path d="M42.846 24.346c0 .743-.603 1.346-1.346 1.346s-1.346-.603-1.346-1.346S40.757 23 41.5 23s1.346.603 1.346 1.346z" fill="url(#C)"/><path d="M57.654 25.692c.744 0 1.346-.603 1.346-1.346S58.397 23 57.654 23s-1.346.603-1.346 1.346.603 1.346 1.346 1.346z" fill="url(#C)"/><path d="M25.346 41.846c.743 0 1.346-.603 1.346-1.346s-.603-1.346-1.346-1.346S24 39.757 24 40.5s.603 1.346 1.346 1.346z" fill="url(#C)"/><use xlink:href="#E" fill="url(#C)"/><path d="M57.654 41.846c.744 0 1.346-.603 1.346-1.346s-.603-1.346-1.346-1.346-1.346.603-1.346 1.346.603 1.346 1.346 1.346z" fill="url(#C)"/><path d="M26.692 56.654c0 .744-.603 1.346-1.346 1.346S24 57.397 24 56.654s.603-1.346 1.346-1.346 1.346.603 1.346 1.346z" fill="url(#C)"/><path d="M41.5 58c.743 0 1.346-.603 1.346-1.346s-.603-1.346-1.346-1.346-1.346.603-1.346 1.346S40.757 58 41.5 58z" fill="url(#C)"/><path d="M59 56.654c0 .744-.603 1.346-1.346 1.346s-1.346-.603-1.346-1.346.603-1.346 1.346-1.346S59 55.9 59 56.654z" fill="url(#C)"/></g><path d="M1 62.362v6.547a2 2 0 0 0 2 2h66a2 2 0 0 0 2-2V23.5M1 39.816V3.09a2 2 0 0 1 2-2h66a2 2 0 0 1 2 2V12" stroke="url(#D)" stroke-width="2"/><use xlink:href="#E" fill="#00f0ff"/><defs><linearGradient id="A" x1="24" y1="8" x2="24" y2="41" gradientUnits="userSpaceOnUse"><stop stop-color="#1e1d58"/><stop offset="1" stop-color="#040d2f"/></linearGradient><linearGradient id="B" x1="42" y1="19" x2="42" y2="63.186" gradientUnits="userSpaceOnUse"><stop stop-color="#1e1d58"/><stop offset="1" stop-color="#040d2f"/></linearGradient><linearGradient id="C" x1="41.5" y1="23" x2="41.5" y2="58" gradientUnits="userSpaceOnUse"><stop stop-color="#01d1ff"/><stop offset="1" stop-color="#660dac"/></linearGradient><linearGradient id="D" x1="36" y1="1.089" x2="36" y2="70.909" gradientUnits="userSpaceOnUse"><stop stop-color="#01d1ff"/><stop offset="1" stop-color="#660dac"/></linearGradient><path id="E" d="M42.846 40.5c0 .743-.603 1.346-1.346 1.346s-1.346-.603-1.346-1.346.603-1.346 1.346-1.346 1.346.603 1.346 1.346z"/></defs></svg>