<svg xmlns="http://www.w3.org/2000/svg" width="72" height="72" fill="none"  xmlns:v="https://vecta.io/nano"><path d="M69.308 51.04c-2.22 3.14-5.663 5.334-9.624 5.87H14.202C9.458 56.908 5.26 54.59 2.694 51c-.016.244-.023.5-.023.738C2.67 57.958 7.648 63 13.788 63a11.11 11.11 0 0 0 1.011-.046V63h42.404v-.046a11.11 11.11 0 0 0 1.011.046c6.14 0 11.117-5.042 11.117-11.262a11.54 11.54 0 0 0-.021-.698z" fill="url(#A)"/><g fill-rule="evenodd"><path d="M17 49.955L16 50C9.925 50 5 45.075 5 39s4.925-11 11-11c1.56 0 3.046.325 4.39.912C22.03 21.524 28.62 16 36.5 16c7.755 0 14.26 5.35 16.027 12.56 1.092-.363 2.26-.56 3.473-.56 6.075 0 11 4.925 11 11s-4.925 11-11 11a11.17 11.17 0 0 1-1-.045V50H17v-.045z" fill="url(#B)"/><path d="M2 31.512V3.19a1 1 0 0 1 1-1h32a1 1 0 0 1 1 1v7.812C27.286 11.14 19.84 16.5 16.655 24.1 16.11 24.03 15.56 24 15 24c-5.557 0-10.408 3.022-13 7.512zM2 39c.001 7.158 5.797 12.87 13 12.87h21v-4.88c-6.12-.262-11-5.306-11-11.49C25 29.15 30.15 24 36.5 24S48 29.15 48 35.5c0 5.843-4.358 10.668-10 11.403v4.965h20.863C65.16 50.966 70 45.547 70 39c0-7.18-5.82-13-13-13a13.21 13.21 0 0 0-.859.028l-1.418.092-.554-1.31C51.23 17.867 44.353 13 36.345 13c-8.03 0-14.92 4.89-17.846 11.864l-.578 1.377-1.484-.163c-.47-.052-.95-.078-1.437-.078-7.18 0-13 5.82-13 13zM72 39v-.5h-.008C71.728 30.447 65.117 24 57 24a15.22 15.22 0 0 0-.989.032c-3.037-7.176-9.888-12.346-18.01-12.97V3.19a3 3 0 0 0-3-3H3a3 3 0 0 0-3 3V39.6h.012C.327 47.6 6.917 53.868 15 53.868h21v15.04a3 3 0 0 0 3 3h30a3 3 0 0 0 3-3V39zm-2 7.488c-2.276 3.942-6.293 6.752-11 7.38H38v15.04a1 1 0 0 0 1 1h30a1 1 0 0 0 1-1v-22.42zM46 35.5a9.5 9.5 0 1 1-19 0 9.5 9.5 0 1 1 19 0z" fill="url(#C)"/></g><defs><linearGradient id="A" x1="36" y1="51" x2="36" y2="63" gradientUnits="userSpaceOnUse"><stop stop-color="#1e1d58"/><stop offset="1" stop-color="#040d2f"/></linearGradient><linearGradient id="B" x1="36" y1="16" x2="36" y2="50" gradientUnits="userSpaceOnUse"><stop stop-color="#1e1d58"/><stop offset="1" stop-color="#040d2f"/></linearGradient><linearGradient id="C" x1="36" y1=".191" x2="36" y2="71.909" gradientUnits="userSpaceOnUse"><stop stop-color="#01d1ff"/><stop offset="1" stop-color="#660dac"/></linearGradient></defs></svg>