<svg xmlns="http://www.w3.org/2000/svg" xmlns:xlink="http://www.w3.org/1999/xlink" width="73" height="72" fill="none" xmlns:v="https://vecta.io/nano"><path opacity=".8" d="M39.452 20.863v.274c0 5.447 4.416 9.863 9.863 9.863s9.863-4.416 9.863-9.863v-.274c0-5.447-4.416-9.863-9.863-9.863s-9.863 4.416-9.863 9.863z" fill="url(#A)"/><path opacity=".8" d="M8.877 47.808v.384A13.81 13.81 0 0 0 22.685 62a13.81 13.81 0 0 0 13.808-13.808v-.384A13.81 13.81 0 0 0 22.685 34 13.81 13.81 0 0 0 8.877 47.808z" fill="url(#B)"/><path d="M9.834 10.905c1.195 0 2.163-.982 2.163-2.193s-.97-2.194-2.163-2.194S7.67 7.5 7.67 8.71s.97 2.193 2.163 2.193z" fill="url(#C)"/><path d="M37.96 8.71c0 1.21-.97 2.193-2.163 2.193s-2.163-.982-2.163-2.193.97-2.194 2.163-2.194S37.96 7.5 37.96 8.71z" fill="url(#C)"/><path d="M61.757 10.905c1.195 0 2.163-.982 2.163-2.193s-.97-2.194-2.163-2.194-2.163.982-2.163 2.194.97 2.193 2.163 2.193z" fill="url(#C)"/><use xlink:href="#H" fill="url(#C)"/><path d="M37.96 35.033c0 1.212-.97 2.194-2.163 2.194s-2.163-.982-2.163-2.194.97-2.193 2.163-2.193 2.163.982 2.163 2.194z" fill="url(#C)"/><use xlink:href="#H" x="51.923" fill="url(#D)"/><use xlink:href="#I" fill="url(#C)"/><path d="M35.795 63.55c1.195 0 2.163-.982 2.163-2.193s-.97-2.193-2.163-2.193-2.163.982-2.163 2.194.97 2.194 2.163 2.194z" fill="url(#C)"/><use xlink:href="#I" x="51.923" fill="url(#D)"/><g stroke-width="2"><path d="M1.973 62.362v6.547a2 2 0 0 0 2 2h65.04a2 2 0 0 0 2-2V23.5" stroke="url(#E)"/><path d="M9.863 61.5l5.425-5.5h15.288L36 61.5" stroke="url(#F)"/><path d="M35.507 61.5l5.425-5.5H56.22l5.425 5.5" stroke="url(#G)" stroke-linecap="round"/></g><defs><linearGradient id="A" x1="49.315" y1="11" x2="49.315" y2="31" xlink:href="#J"><stop stop-color="#1e1d58"/><stop offset="1" stop-color="#040d2f"/></linearGradient><linearGradient id="B" x1="22.685" y1="34" x2="22.685" y2="62" xlink:href="#J"><stop stop-color="#1e1d58"/><stop offset="1" stop-color="#040d2f"/></linearGradient><linearGradient id="C" x1="35.795" y1="6.518" x2="35.795" y2="63.549" xlink:href="#J"><stop stop-color="#01d1ff"/><stop offset="1" stop-color="#660dac"/></linearGradient><linearGradient id="D" x1="-16.128" y1="6.518" x2="-16.128" y2="63.549" xlink:href="#J"><stop stop-color="#01d1ff"/><stop offset="1" stop-color="#660dac"/></linearGradient><linearGradient id="E" x1="36.493" y1="23.5" x2="36.493" y2="70.909" xlink:href="#J"><stop stop-color="#01d1ff"/><stop offset="1" stop-color="#660dac"/></linearGradient><linearGradient id="F" x1="22.932" y1="56" x2="22.932" y2="61.5" xlink:href="#J"><stop stop-color="#01d1ff"/><stop offset="1" stop-color="#660dac"/></linearGradient><linearGradient id="G" x1="48.575" y1="56" x2="48.575" y2="61.5" xlink:href="#J"><stop stop-color="#01d1ff"/><stop offset="1" stop-color="#660dac"/></linearGradient><path id="H" d="M9.834 37.227c1.195 0 2.163-.982 2.163-2.194s-.97-2.193-2.163-2.193-2.163.982-2.163 2.194.97 2.194 2.163 2.194z"/><path id="I" d="M11.997 61.356c0 1.21-.97 2.194-2.163 2.194s-2.163-.982-2.163-2.193.97-2.193 2.163-2.193 2.163.982 2.163 2.194z"/><linearGradient id="J" gradientUnits="userSpaceOnUse"/></defs></svg>