<svg width="444" height="233" viewBox="0 0 444 233" fill="none" xmlns="http://www.w3.org/2000/svg">
<path opacity="0.2" d="M95.1101 45.3521C95.1101 41.6983 98.0724 38.736 101.727 38.736H342.123C345.777 38.736 348.74 41.6983 348.74 45.3521V165.275C348.74 168.929 345.777 171.892 342.123 171.892H101.727C98.0724 171.892 95.1101 168.929 95.1101 165.275V45.3521Z" fill="url(#paint0_linear_424_1132)"/>
<path fill-rule="evenodd" clip-rule="evenodd" d="M172.325 127.435L220.018 156.177H220.019H220.019L267.968 127.283L267.228 126.837L219.998 60.2393L172.768 126.812L172.03 127.256L172.326 127.434L172.325 127.435Z" fill="url(#paint1_linear_424_1132)" fill-opacity="0.2"/>
<path d="M220.019 156.177L216.604 161.844L220.044 163.918L223.472 161.821L220.019 156.177ZM172.326 127.435L166.932 123.604L162.802 129.42L168.911 133.102L172.326 127.435ZM220.019 156.177L223.496 150.548L220.036 148.41L216.566 150.533L220.019 156.177ZM220.02 156.177L216.543 161.806L219.977 163.928L223.435 161.844L220.02 156.177ZM267.969 127.283L271.384 132.95L280.788 127.283L271.384 121.616L267.969 127.283ZM267.228 126.837L261.831 130.664L262.63 131.791L263.813 132.504L267.228 126.837ZM219.999 60.2392L225.396 56.4119L220 48.8029L214.603 56.4108L219.999 60.2392ZM172.768 126.812L176.183 132.479L177.365 131.767L178.164 130.64L172.768 126.812ZM172.031 127.256L168.616 121.589L159.211 127.255L168.616 132.923L172.031 127.256ZM172.327 127.434L177.721 131.265L181.851 125.449L175.742 121.767L172.327 127.434ZM223.434 150.51L175.742 121.768L168.911 133.102L216.604 161.844L223.434 150.51ZM216.566 150.533L223.472 161.821L223.472 161.821L216.566 150.533ZM223.496 150.548V150.548L216.543 161.806L223.496 150.548ZM264.554 121.616L216.605 150.51L223.435 161.844L271.384 132.95L264.554 121.616ZM263.813 132.504L264.554 132.95L271.384 121.616L270.643 121.17L263.813 132.504ZM214.601 64.0666L261.831 130.664L272.626 123.009L225.396 56.4119L214.601 64.0666ZM178.164 130.64L225.395 64.0676L214.603 56.4108L167.372 122.984L178.164 130.64ZM175.446 132.923L176.183 132.479L169.354 121.145L168.616 121.589L175.446 132.923ZM175.742 121.767L175.446 121.589L168.616 132.923L168.911 133.101L175.742 121.767ZM177.721 131.266V131.265L166.932 123.604L166.932 123.604L177.721 131.266Z" fill="#00F0FF"/>
<path d="M60.374 7.30831C60.374 5.48087 61.8554 4 63.6823 4H380.168C381.995 4 383.476 5.48087 383.476 7.30831V203.32C383.476 205.147 381.995 206.627 380.168 206.627H63.6823C61.8554 206.627 60.374 205.147 60.374 203.32V7.30831Z" stroke="url(#paint2_linear_424_1132)" stroke-width="6.96229"/>
<path d="M0 228.958H443.851" stroke="url(#paint3_linear_424_1132)" stroke-width="6.85518"/>
<defs>
<linearGradient id="paint0_linear_424_1132" x1="221.925" y1="38.736" x2="221.925" y2="171.892" gradientUnits="userSpaceOnUse">
<stop stop-color="#01D1FF"/>
<stop offset="1" stop-color="#660DAC"/>
</linearGradient>
<linearGradient id="paint1_linear_424_1132" x1="220" y1="60.2393" x2="220" y2="156.177" gradientUnits="userSpaceOnUse">
<stop stop-color="#01D1FF"/>
<stop offset="1" stop-color="#660DAC"/>
</linearGradient>
<linearGradient id="paint2_linear_424_1132" x1="221.925" y1="0.691687" x2="221.925" y2="209.936" gradientUnits="userSpaceOnUse">
<stop stop-color="#01D1FF"/>
<stop offset="1" stop-color="#660DAC"/>
</linearGradient>
<linearGradient id="paint3_linear_424_1132" x1="nan" y1="nan" x2="nan" y2="nan" gradientUnits="userSpaceOnUse">
<stop stop-color="#01D1FF"/>
<stop offset="1" stop-color="#660DAC"/>
</linearGradient>
</defs>
</svg>
