<svg width="233" height="237" viewBox="0 0 233 237" fill="none" xmlns="http://www.w3.org/2000/svg">
<path fill-rule="evenodd" clip-rule="evenodd" d="M7.59869 7.59895H224.731V176.337H7.59869V7.59895ZM0 7.59895C0 3.40212 3.40206 0 7.59869 0H224.731C228.928 0 232.33 3.40212 232.33 7.59895V176.337C232.33 180.534 228.928 183.937 224.731 183.937H7.59873C3.40207 183.937 0 180.534 0 176.337V7.59895ZM87.6952 228.541H144.631V196.844H152.229V228.541H200.055V236.14H32.2611V228.541H80.0962V212.979H87.6952V228.541Z" fill="url(#paint0_linear_423_1097)"/>
<mask id="mask0_423_1097" style="mask-type:alpha" maskUnits="userSpaceOnUse" x="63" y="36" width="108" height="109">
<path fill-rule="evenodd" clip-rule="evenodd" d="M116.852 144.085H116.853L170.071 112.014H170.07L170.401 111.815L169.577 111.318L116.83 36.938L64.0855 111.287L63.2593 111.785L63.5908 111.984L116.852 144.085H116.852Z" fill="white"/>
</mask>
<g mask="url(#mask0_423_1097)">
<path fill-rule="evenodd" clip-rule="evenodd" d="M116.852 144.085H116.853L170.071 112.014H170.07L170.401 111.815L169.577 111.318L116.83 36.938L64.0855 111.287L63.2593 111.785L63.5908 111.984L116.852 144.085H116.852Z" fill="url(#paint1_linear_423_1097)" fill-opacity="0.2"/>
<path d="M116.853 144.085L114.517 148.001L116.865 149.401L119.206 147.99L116.853 144.085ZM116.852 144.085L119.188 140.169L116.846 138.772L114.507 140.175L116.852 144.085ZM170.071 112.014L172.424 115.92L176.671 113.36L173.765 109.342L170.071 112.014ZM170.07 112.014L167.718 108.109L163.47 110.668L166.376 114.686L170.07 112.014ZM170.401 111.815L172.755 115.72L179.235 111.815L172.755 107.909L170.401 111.815ZM169.577 111.318L165.858 113.956L166.409 114.732L167.224 115.223L169.577 111.318ZM116.83 36.938L120.549 34.3005L116.831 29.0571L113.112 34.2998L116.83 36.938ZM64.0856 111.287L66.4385 115.192L67.2535 114.701L67.8039 113.925L64.0856 111.287ZM63.2594 111.785L60.9066 107.879L54.4248 111.785L60.9069 115.69L63.2594 111.785ZM63.591 111.984L65.9443 108.079L65.9435 108.079L63.591 111.984ZM116.852 144.085L114.499 147.99L116.847 149.405L119.198 147.994L116.852 144.085ZM119.189 140.169L119.188 140.169L114.517 148L114.517 148.001L119.189 140.169ZM167.718 108.109L114.5 140.179L119.206 147.99L172.424 115.92L167.718 108.109ZM166.376 114.686L166.377 114.687L173.765 109.342L173.764 109.342L166.376 114.686ZM168.048 107.909L167.718 108.109L172.424 115.919L172.755 115.72L168.048 107.909ZM167.224 115.223L168.048 115.72L172.755 107.909L171.93 107.413L167.224 115.223ZM113.112 39.5755L165.858 113.956L173.296 108.681L120.549 34.3005L113.112 39.5755ZM67.8039 113.925L120.549 39.5762L113.112 34.2998L60.367 108.649L67.8039 113.925ZM65.6123 115.69L66.4385 115.192L61.7328 107.382L60.9066 107.879L65.6123 115.69ZM65.9435 108.079L65.6123 107.879L60.9069 115.69L61.2381 115.89L65.9435 108.079ZM119.206 140.179L65.9443 108.079L61.2374 115.89L114.499 147.99L119.206 140.179ZM114.507 140.175L114.506 140.175L119.198 147.994L119.198 147.994L114.507 140.175Z" fill="#00F0FF"/>
</g>
<defs>
<linearGradient id="paint0_linear_423_1097" x1="116.165" y1="0" x2="116.165" y2="236.14" gradientUnits="userSpaceOnUse">
<stop stop-color="#01D1FF"/>
<stop offset="1" stop-color="#660DAC"/>
</linearGradient>
<linearGradient id="paint1_linear_423_1097" x1="116.83" y1="36.938" x2="116.83" y2="144.085" gradientUnits="userSpaceOnUse">
<stop stop-color="#01D1FF"/>
<stop offset="1" stop-color="#660DAC"/>
</linearGradient>
</defs>
</svg>
