<svg width="231" height="238" viewBox="0 0 231 238" fill="none" xmlns="http://www.w3.org/2000/svg">
<g clip-path="url(#clip0_423_1060)">
<path opacity="0.2" d="M25.6667 52.1644C25.6667 48.5631 28.5395 45.6438 32.0834 45.6438H198.917C202.461 45.6438 205.333 48.5631 205.333 52.1644V149.973C205.333 153.574 202.461 156.493 198.917 156.493H32.0834C28.5395 156.493 25.6667 153.574 25.6667 149.973V52.1644Z" fill="url(#paint0_linear_423_1060)"/>
<path fill-rule="evenodd" clip-rule="evenodd" d="M6.41667 6.52055H224.583V117.37H184.407L134.154 66.1637L131.883 63.8485L129.611 66.1637L80.6896 116.013L58.0567 92.9507L55.7849 90.6359L53.5131 92.9507L29.5487 117.37H6.41667V6.52055ZM0 123.89V117.37V6.52055C0 2.91935 2.87284 0 6.41667 0H224.583C228.127 0 231 2.91935 231 6.52055V117.37V123.89V179.315C231 182.916 228.127 185.836 224.583 185.836H6.41667C2.87284 185.836 0 182.916 0 179.315V123.89ZM224.583 123.89V179.315H6.41667V123.89H30.8802H32.2117L33.152 122.932L55.7849 99.87L78.4178 122.932L80.6896 125.247L82.9614 122.932L131.883 73.083L180.804 122.932L181.744 123.89H183.076H224.583ZM35.2917 27.7123C35.2917 32.2138 31.7006 35.863 27.2708 35.863C22.8411 35.863 19.25 32.2138 19.25 27.7123C19.25 23.2108 22.8411 19.5616 27.2708 19.5616C31.7006 19.5616 35.2917 23.2108 35.2917 27.7123ZM86.625 231.479H144.375V198.877H150.792V231.479H198.917V238H32.0833V231.479H80.2083V215.178H86.625V231.479Z" fill="url(#paint1_linear_423_1060)"/>
</g>
<defs>
<linearGradient id="paint0_linear_423_1060" x1="115.5" y1="45.6438" x2="115.5" y2="156.493" gradientUnits="userSpaceOnUse">
<stop stop-color="#01D1FF"/>
<stop offset="1" stop-color="#660DAC"/>
</linearGradient>
<linearGradient id="paint1_linear_423_1060" x1="115.5" y1="0" x2="115.5" y2="238" gradientUnits="userSpaceOnUse">
<stop stop-color="#01D1FF"/>
<stop offset="1" stop-color="#660DAC"/>
</linearGradient>
<clipPath id="clip0_423_1060">
<rect width="231" height="238" fill="white"/>
</clipPath>
</defs>
</svg>
