<svg width="541" height="503" viewBox="0 0 541 503" fill="none"
  xmlns="http://www.w3.org/2000/svg">
  <path d="M86.1079 443C43.863 397.861 18 337.201 18 270.5C18 131.048 131.048 18 270.5 18C409.952 18 523 131.048 523 270.5C523 337.201 497.137 397.861 454.892 443" stroke="url(#paint0_linear)" stroke-width="35" stroke-linecap="round"/>
  <path fill-rule="evenodd" clip-rule="evenodd" d="M241.346 487.139C241.545 487.33 241.552 487.646 241.361 487.846L234.664 494.846L234.516 495H234.302H234H233.5V494.5L233.5 482.5C233.5 482.224 233.724 482 234 482C234.276 482 234.5 482.224 234.5 482.5V493.57L240.639 487.154C240.83 486.955 241.146 486.948 241.346 487.139ZM231.656 492.854C231.461 493.049 231.144 493.049 230.949 492.854L226.146 488.051C225.951 487.856 225.951 487.539 226.146 487.344C226.342 487.149 226.658 487.149 226.854 487.344L231.656 492.146C231.851 492.342 231.851 492.658 231.656 492.854Z" fill="#00F0FF"/>
  <path d="M257.879 489.402L258.023 485.892H257.861L255.521 492.354L253.181 485.892H253.019L253.163 489.402V495H250.823V482.436H254.009L255.557 486.666H255.701L257.249 482.436H260.219V495H257.879V489.402ZM261.976 481.68H264.64V487.404H264.766C264.994 486.852 265.324 486.396 265.756 486.036C266.188 485.676 266.776 485.496 267.52 485.496C268.036 485.496 268.504 485.592 268.924 485.784C269.356 485.976 269.722 486.27 270.022 486.666C270.334 487.062 270.574 487.566 270.742 488.178C270.922 488.79 271.012 489.516 271.012 490.356C271.012 491.196 270.922 491.922 270.742 492.534C270.574 493.146 270.334 493.65 270.022 494.046C269.722 494.442 269.356 494.736 268.924 494.928C268.504 495.12 268.036 495.216 267.52 495.216C266.776 495.216 266.188 495.042 265.756 494.694C265.324 494.334 264.994 493.872 264.766 493.308H264.64V495H261.976V481.68ZM266.368 493.146C266.968 493.146 267.43 492.966 267.754 492.606C268.078 492.234 268.24 491.724 268.24 491.076V489.636C268.24 488.988 268.078 488.484 267.754 488.124C267.43 487.752 266.968 487.566 266.368 487.566C265.9 487.566 265.492 487.68 265.144 487.908C264.808 488.136 264.64 488.496 264.64 488.988V491.724C264.64 492.216 264.808 492.576 265.144 492.804C265.492 493.032 265.9 493.146 266.368 493.146ZM277.683 484.524C277.083 484.524 276.663 484.404 276.423 484.164C276.195 483.912 276.081 483.612 276.081 483.264V482.742C276.081 482.382 276.195 482.082 276.423 481.842C276.663 481.602 277.083 481.482 277.683 481.482C278.283 481.482 278.697 481.602 278.925 481.842C279.165 482.082 279.285 482.382 279.285 482.742V483.264C279.285 483.612 279.165 483.912 278.925 484.164C278.697 484.404 278.283 484.524 277.683 484.524ZM273.399 492.93H276.351V487.782H273.399V485.712H279.015V492.93H281.751V495H273.399V492.93ZM288.62 495C287.66 495 286.946 494.748 286.478 494.244C286.01 493.74 285.776 493.098 285.776 492.318V487.782H283.256V485.712H284.894C285.29 485.712 285.572 485.634 285.74 485.478C285.908 485.322 285.992 485.034 285.992 484.614V482.436H288.44V485.712H292.058V487.782H288.44V492.93H292.058V495H288.62ZM294.607 497.484L300.385 481.32H302.779L297.001 497.484H294.607ZM309.378 495.216C308.346 495.216 307.446 495.06 306.678 494.748C305.922 494.436 305.352 494.01 304.968 493.47L306.462 492.084C306.822 492.48 307.242 492.792 307.722 493.02C308.214 493.236 308.772 493.344 309.396 493.344C309.924 493.344 310.338 493.266 310.638 493.11C310.938 492.942 311.088 492.69 311.088 492.354C311.088 492.09 310.986 491.91 310.782 491.814C310.578 491.706 310.296 491.622 309.936 491.562L308.442 491.328C308.022 491.268 307.632 491.178 307.272 491.058C306.912 490.926 306.6 490.752 306.336 490.536C306.072 490.32 305.862 490.056 305.706 489.744C305.55 489.432 305.472 489.054 305.472 488.61C305.472 487.638 305.844 486.876 306.588 486.324C307.332 485.772 308.376 485.496 309.72 485.496C310.632 485.496 311.406 485.622 312.042 485.874C312.69 486.114 313.206 486.462 313.59 486.918L312.258 488.43C311.982 488.13 311.628 487.878 311.196 487.674C310.764 487.47 310.242 487.368 309.63 487.368C308.598 487.368 308.082 487.68 308.082 488.304C308.082 488.58 308.184 488.772 308.388 488.88C308.592 488.976 308.874 489.054 309.234 489.114L310.71 489.348C311.13 489.408 311.52 489.504 311.88 489.636C312.24 489.756 312.552 489.924 312.816 490.14C313.092 490.356 313.308 490.62 313.464 490.932C313.62 491.244 313.698 491.622 313.698 492.066C313.698 493.038 313.32 493.806 312.564 494.37C311.82 494.934 310.758 495.216 309.378 495.216Z" fill="white"/>
  <path d="M271.429 91H259.381V87.712L264.661 83.32C265.573 82.536 266.229 81.856 266.629 81.28C267.029 80.704 267.229 80.096 267.229 79.456V79.216C267.229 78.512 267.021 77.984 266.605 77.632C266.189 77.264 265.629 77.08 264.925 77.08C264.125 77.08 263.509 77.312 263.077 77.776C262.645 78.24 262.341 78.792 262.165 79.432L259.021 78.232C259.213 77.656 259.477 77.112 259.813 76.6C260.149 76.072 260.573 75.616 261.085 75.232C261.613 74.848 262.221 74.544 262.909 74.32C263.597 74.08 264.389 73.96 265.285 73.96C266.197 73.96 267.013 74.088 267.733 74.344C268.453 74.6 269.061 74.952 269.557 75.4C270.053 75.848 270.429 76.384 270.685 77.008C270.941 77.616 271.069 78.28 271.069 79C271.069 79.704 270.949 80.352 270.709 80.944C270.485 81.52 270.165 82.064 269.749 82.576C269.349 83.088 268.869 83.584 268.309 84.064C267.765 84.544 267.181 85.024 266.557 85.504L263.365 87.976H271.429V91ZM279.7 91.288C277.46 91.288 275.804 90.528 274.732 89.008C273.676 87.488 273.148 85.36 273.148 82.624C273.148 79.888 273.676 77.76 274.732 76.24C275.804 74.72 277.46 73.96 279.7 73.96C281.94 73.96 283.588 74.72 284.644 76.24C285.716 77.76 286.252 79.888 286.252 82.624C286.252 85.36 285.716 87.488 284.644 89.008C283.588 90.528 281.94 91.288 279.7 91.288ZM279.7 88.456C280.772 88.456 281.516 88.08 281.932 87.328C282.364 86.576 282.58 85.528 282.58 84.184V81.064C282.58 79.72 282.364 78.672 281.932 77.92C281.516 77.168 280.772 76.792 279.7 76.792C278.628 76.792 277.876 77.168 277.444 77.92C277.028 78.672 276.82 79.72 276.82 81.064V84.184C276.82 85.528 277.028 86.576 277.444 87.328C277.876 88.08 278.628 88.456 279.7 88.456ZM279.7 84.04C279.14 84.04 278.748 83.928 278.524 83.704C278.316 83.48 278.212 83.208 278.212 82.888V82.36C278.212 82.04 278.316 81.768 278.524 81.544C278.748 81.32 279.14 81.208 279.7 81.208C280.26 81.208 280.644 81.32 280.852 81.544C281.076 81.768 281.188 82.04 281.188 82.36V82.888C281.188 83.208 281.076 83.48 280.852 83.704C280.644 83.928 280.26 84.04 279.7 84.04Z" fill="#B6C8DD"/>
  <path d="M96.9047 207.392H89.1527L88.7687 212.696H88.9847C89.1607 212.312 89.3607 211.96 89.5847 211.64C89.8087 211.304 90.0727 211.024 90.3767 210.8C90.6807 210.56 91.0327 210.376 91.4327 210.248C91.8327 210.12 92.2887 210.056 92.8007 210.056C93.4887 210.056 94.1367 210.176 94.7447 210.416C95.3687 210.656 95.9127 211.008 96.3767 211.472C96.8567 211.92 97.2327 212.48 97.5047 213.152C97.7767 213.808 97.9127 214.552 97.9127 215.384C97.9127 216.232 97.7687 217.016 97.4807 217.736C97.1927 218.456 96.7687 219.08 96.2087 219.608C95.6647 220.136 94.9847 220.552 94.1687 220.856C93.3527 221.144 92.4247 221.288 91.3847 221.288C90.5687 221.288 89.8407 221.2 89.2007 221.024C88.5607 220.848 87.9927 220.616 87.4967 220.328C87.0167 220.024 86.5927 219.68 86.2247 219.296C85.8727 218.896 85.5687 218.488 85.3127 218.072L87.9287 216.008C88.1207 216.328 88.3207 216.632 88.5287 216.92C88.7527 217.208 89.0007 217.464 89.2727 217.688C89.5607 217.896 89.8727 218.064 90.2087 218.192C90.5607 218.304 90.9607 218.36 91.4087 218.36C92.3047 218.36 92.9767 218.12 93.4247 217.64C93.8887 217.144 94.1207 216.488 94.1207 215.672V215.48C94.1207 214.696 93.8887 214.08 93.4247 213.632C92.9607 213.184 92.3207 212.96 91.5047 212.96C90.8327 212.96 90.2727 213.096 89.8247 213.368C89.3927 213.624 89.0647 213.88 88.8407 214.136L85.8887 213.728L86.5127 204.248H96.9047V207.392Z" fill="#B6C8DD"/>
  <path d="M76.5607 313V310.096H81.0727V298.864H80.8567L77.4487 303.328L75.1447 301.528L79.1527 296.248H84.6727V310.096H88.2247V313H76.5607Z" fill="#B6C8DD"/>
  <path d="M131.365 129V126.096H135.877V114.864H135.661L132.253 119.328L129.949 117.528L133.957 112.248H139.477V126.096H143.029V129H131.365ZM150.7 129.288C148.46 129.288 146.804 128.528 145.732 127.008C144.676 125.488 144.148 123.36 144.148 120.624C144.148 117.888 144.676 115.76 145.732 114.24C146.804 112.72 148.46 111.96 150.7 111.96C152.94 111.96 154.588 112.72 155.644 114.24C156.716 115.76 157.252 117.888 157.252 120.624C157.252 123.36 156.716 125.488 155.644 127.008C154.588 128.528 152.94 129.288 150.7 129.288ZM150.7 126.456C151.772 126.456 152.516 126.08 152.932 125.328C153.364 124.576 153.58 123.528 153.58 122.184V119.064C153.58 117.72 153.364 116.672 152.932 115.92C152.516 115.168 151.772 114.792 150.7 114.792C149.628 114.792 148.876 115.168 148.444 115.92C148.028 116.672 147.82 117.72 147.82 119.064V122.184C147.82 123.528 148.028 124.576 148.444 125.328C148.876 126.08 149.628 126.456 150.7 126.456ZM150.7 122.04C150.14 122.04 149.748 121.928 149.524 121.704C149.316 121.48 149.212 121.208 149.212 120.888V120.36C149.212 120.04 149.316 119.768 149.524 119.544C149.748 119.32 150.14 119.208 150.7 119.208C151.26 119.208 151.644 119.32 151.852 119.544C152.076 119.768 152.188 120.04 152.188 120.36V120.888C152.188 121.208 152.076 121.48 151.852 121.704C151.644 121.928 151.26 122.04 150.7 122.04Z" fill="#B6C8DD"/>
  <path d="M400.661 118.872C401.589 118.872 402.261 118.696 402.677 118.344C403.109 117.992 403.325 117.56 403.325 117.048V116.88C403.325 116.272 403.117 115.792 402.701 115.44C402.301 115.072 401.725 114.888 400.973 114.888C400.285 114.888 399.637 115.064 399.029 115.416C398.437 115.752 397.933 116.24 397.517 116.88L395.237 114.768C395.557 114.352 395.909 113.976 396.293 113.64C396.677 113.288 397.101 112.992 397.565 112.752C398.029 112.496 398.549 112.304 399.125 112.176C399.717 112.032 400.381 111.96 401.117 111.96C402.029 111.96 402.853 112.064 403.589 112.272C404.325 112.48 404.949 112.784 405.461 113.184C405.989 113.568 406.397 114.032 406.685 114.576C406.973 115.12 407.117 115.728 407.117 116.4C407.117 116.928 407.029 117.408 406.853 117.84C406.677 118.272 406.437 118.648 406.133 118.968C405.845 119.288 405.501 119.552 405.101 119.76C404.717 119.952 404.301 120.088 403.853 120.168V120.312C404.877 120.488 405.725 120.92 406.397 121.608C407.085 122.28 407.429 123.192 407.429 124.344C407.429 125.096 407.269 125.776 406.949 126.384C406.645 126.992 406.205 127.512 405.629 127.944C405.069 128.376 404.381 128.712 403.565 128.952C402.765 129.176 401.869 129.288 400.877 129.288C400.029 129.288 399.277 129.2 398.621 129.024C397.981 128.848 397.413 128.616 396.917 128.328C396.421 128.024 395.989 127.68 395.621 127.296C395.269 126.896 394.957 126.488 394.685 126.072L397.349 124.008C397.717 124.696 398.173 125.264 398.717 125.712C399.277 126.144 400.021 126.36 400.949 126.36C401.813 126.36 402.477 126.16 402.941 125.76C403.405 125.36 403.637 124.808 403.637 124.104V123.936C403.637 123.248 403.373 122.736 402.845 122.4C402.317 122.048 401.581 121.872 400.637 121.872H399.077V118.872H400.661ZM415.7 129.288C413.46 129.288 411.804 128.528 410.732 127.008C409.676 125.488 409.148 123.36 409.148 120.624C409.148 117.888 409.676 115.76 410.732 114.24C411.804 112.72 413.46 111.96 415.7 111.96C417.94 111.96 419.588 112.72 420.644 114.24C421.716 115.76 422.252 117.888 422.252 120.624C422.252 123.36 421.716 125.488 420.644 127.008C419.588 128.528 417.94 129.288 415.7 129.288ZM415.7 126.456C416.772 126.456 417.516 126.08 417.932 125.328C418.364 124.576 418.58 123.528 418.58 122.184V119.064C418.58 117.72 418.364 116.672 417.932 115.92C417.516 115.168 416.772 114.792 415.7 114.792C414.628 114.792 413.876 115.168 413.444 115.92C413.028 116.672 412.82 117.72 412.82 119.064V122.184C412.82 123.528 413.028 124.576 413.444 125.328C413.876 126.08 414.628 126.456 415.7 126.456ZM415.7 122.04C415.14 122.04 414.748 121.928 414.524 121.704C414.316 121.48 414.212 121.208 414.212 120.888V120.36C414.212 120.04 414.316 119.768 414.524 119.544C414.748 119.32 415.14 119.208 415.7 119.208C416.26 119.208 416.644 119.32 416.852 119.544C417.076 119.768 417.188 120.04 417.188 120.36V120.888C417.188 121.208 417.076 121.48 416.852 121.704C416.644 121.928 416.26 122.04 415.7 122.04Z" fill="#B6C8DD"/>
  <path d="M125.505 405.288C123.265 405.288 121.609 404.528 120.537 403.008C119.481 401.488 118.953 399.36 118.953 396.624C118.953 393.888 119.481 391.76 120.537 390.24C121.609 388.72 123.265 387.96 125.505 387.96C127.745 387.96 129.393 388.72 130.449 390.24C131.521 391.76 132.057 393.888 132.057 396.624C132.057 399.36 131.521 401.488 130.449 403.008C129.393 404.528 127.745 405.288 125.505 405.288ZM125.505 402.456C126.577 402.456 127.321 402.08 127.737 401.328C128.169 400.576 128.385 399.528 128.385 398.184V395.064C128.385 393.72 128.169 392.672 127.737 391.92C127.321 391.168 126.577 390.792 125.505 390.792C124.433 390.792 123.681 391.168 123.249 391.92C122.833 392.672 122.625 393.72 122.625 395.064V398.184C122.625 399.528 122.833 400.576 123.249 401.328C123.681 402.08 124.433 402.456 125.505 402.456ZM125.505 398.04C124.945 398.04 124.553 397.928 124.329 397.704C124.121 397.48 124.017 397.208 124.017 396.888V396.36C124.017 396.04 124.121 395.768 124.329 395.544C124.553 395.32 124.945 395.208 125.505 395.208C126.065 395.208 126.449 395.32 126.657 395.544C126.881 395.768 126.993 396.04 126.993 396.36V396.888C126.993 397.208 126.881 397.48 126.657 397.704C126.449 397.928 126.065 398.04 125.505 398.04Z" fill="#B6C8DD"/>
  <path d="M396.67 405V402.096H401.182V390.864H400.966L397.558 395.328L395.254 393.528L399.262 388.248H404.782V402.096H408.334V405H396.67ZM416.005 405.288C413.765 405.288 412.109 404.528 411.037 403.008C409.981 401.488 409.453 399.36 409.453 396.624C409.453 393.888 409.981 391.76 411.037 390.24C412.109 388.72 413.765 387.96 416.005 387.96C418.245 387.96 419.893 388.72 420.949 390.24C422.021 391.76 422.557 393.888 422.557 396.624C422.557 399.36 422.021 401.488 420.949 403.008C419.893 404.528 418.245 405.288 416.005 405.288ZM416.005 402.456C417.077 402.456 417.821 402.08 418.237 401.328C418.669 400.576 418.885 399.528 418.885 398.184V395.064C418.885 393.72 418.669 392.672 418.237 391.92C417.821 391.168 417.077 390.792 416.005 390.792C414.933 390.792 414.181 391.168 413.749 391.92C413.333 392.672 413.125 393.72 413.125 395.064V398.184C413.125 399.528 413.333 400.576 413.749 401.328C414.181 402.08 414.933 402.456 416.005 402.456ZM416.005 398.04C415.445 398.04 415.053 397.928 414.829 397.704C414.621 397.48 414.517 397.208 414.517 396.888V396.36C414.517 396.04 414.621 395.768 414.829 395.544C415.053 395.32 415.445 395.208 416.005 395.208C416.565 395.208 416.949 395.32 417.157 395.544C417.381 395.768 417.493 396.04 417.493 396.36V396.888C417.493 397.208 417.381 397.48 417.157 397.704C416.949 397.928 416.565 398.04 416.005 398.04ZM430.395 405.288C428.155 405.288 426.499 404.528 425.427 403.008C424.371 401.488 423.843 399.36 423.843 396.624C423.843 393.888 424.371 391.76 425.427 390.24C426.499 388.72 428.155 387.96 430.395 387.96C432.635 387.96 434.283 388.72 435.339 390.24C436.411 391.76 436.947 393.888 436.947 396.624C436.947 399.36 436.411 401.488 435.339 403.008C434.283 404.528 432.635 405.288 430.395 405.288ZM430.395 402.456C431.467 402.456 432.211 402.08 432.627 401.328C433.059 400.576 433.275 399.528 433.275 398.184V395.064C433.275 393.72 433.059 392.672 432.627 391.92C432.211 391.168 431.467 390.792 430.395 390.792C429.323 390.792 428.571 391.168 428.139 391.92C427.723 392.672 427.515 393.72 427.515 395.064V398.184C427.515 399.528 427.723 400.576 428.139 401.328C428.571 402.08 429.323 402.456 430.395 402.456ZM430.395 398.04C429.835 398.04 429.443 397.928 429.219 397.704C429.011 397.48 428.907 397.208 428.907 396.888V396.36C428.907 396.04 429.011 395.768 429.219 395.544C429.443 395.32 429.835 395.208 430.395 395.208C430.955 395.208 431.339 395.32 431.547 395.544C431.771 395.768 431.883 396.04 431.883 396.36V396.888C431.883 397.208 431.771 397.48 431.547 397.704C431.339 397.928 430.955 398.04 430.395 398.04Z" fill="#B6C8DD"/>
  <path d="M448.709 207.392H440.957L440.573 212.696H440.789C440.965 212.312 441.165 211.96 441.389 211.64C441.613 211.304 441.877 211.024 442.181 210.8C442.485 210.56 442.837 210.376 443.237 210.248C443.637 210.12 444.093 210.056 444.605 210.056C445.293 210.056 445.941 210.176 446.549 210.416C447.173 210.656 447.717 211.008 448.181 211.472C448.661 211.92 449.037 212.48 449.309 213.152C449.581 213.808 449.717 214.552 449.717 215.384C449.717 216.232 449.573 217.016 449.285 217.736C448.997 218.456 448.573 219.08 448.013 219.608C447.469 220.136 446.789 220.552 445.973 220.856C445.157 221.144 444.229 221.288 443.189 221.288C442.373 221.288 441.645 221.2 441.005 221.024C440.365 220.848 439.797 220.616 439.301 220.328C438.821 220.024 438.397 219.68 438.029 219.296C437.677 218.896 437.373 218.488 437.117 218.072L439.733 216.008C439.925 216.328 440.125 216.632 440.333 216.92C440.557 217.208 440.805 217.464 441.077 217.688C441.365 217.896 441.677 218.064 442.013 218.192C442.365 218.304 442.765 218.36 443.213 218.36C444.109 218.36 444.781 218.12 445.229 217.64C445.693 217.144 445.925 216.488 445.925 215.672V215.48C445.925 214.696 445.693 214.08 445.229 213.632C444.765 213.184 444.125 212.96 443.309 212.96C442.637 212.96 442.077 213.096 441.629 213.368C441.197 213.624 440.869 213.88 440.645 214.136L437.693 213.728L438.317 204.248H448.709V207.392ZM457.7 221.288C455.46 221.288 453.804 220.528 452.732 219.008C451.676 217.488 451.148 215.36 451.148 212.624C451.148 209.888 451.676 207.76 452.732 206.24C453.804 204.72 455.46 203.96 457.7 203.96C459.94 203.96 461.588 204.72 462.644 206.24C463.716 207.76 464.252 209.888 464.252 212.624C464.252 215.36 463.716 217.488 462.644 219.008C461.588 220.528 459.94 221.288 457.7 221.288ZM457.7 218.456C458.772 218.456 459.516 218.08 459.932 217.328C460.364 216.576 460.58 215.528 460.58 214.184V211.064C460.58 209.72 460.364 208.672 459.932 207.92C459.516 207.168 458.772 206.792 457.7 206.792C456.628 206.792 455.876 207.168 455.444 207.92C455.028 208.672 454.82 209.72 454.82 211.064V214.184C454.82 215.528 455.028 216.576 455.444 217.328C455.876 218.08 456.628 218.456 457.7 218.456ZM457.7 214.04C457.14 214.04 456.748 213.928 456.524 213.704C456.316 213.48 456.212 213.208 456.212 212.888V212.36C456.212 212.04 456.316 211.768 456.524 211.544C456.748 211.32 457.14 211.208 457.7 211.208C458.26 211.208 458.644 211.32 458.852 211.544C459.076 211.768 459.188 212.04 459.188 212.36V212.888C459.188 213.208 459.076 213.48 458.852 213.704C458.644 213.928 458.26 214.04 457.7 214.04Z" fill="#B6C8DD"/>
  <path d="M450.045 313L455.805 299.176H450.381V302.224H447.333V296.248H459.381V299.368L453.837 313H450.045ZM473.1 299.392H465.348L464.964 304.696H465.18C465.356 304.312 465.556 303.96 465.78 303.64C466.004 303.304 466.268 303.024 466.572 302.8C466.876 302.56 467.228 302.376 467.628 302.248C468.028 302.12 468.484 302.056 468.996 302.056C469.684 302.056 470.332 302.176 470.94 302.416C471.564 302.656 472.108 303.008 472.572 303.472C473.052 303.92 473.428 304.48 473.7 305.152C473.972 305.808 474.108 306.552 474.108 307.384C474.108 308.232 473.964 309.016 473.676 309.736C473.388 310.456 472.964 311.08 472.404 311.608C471.86 312.136 471.18 312.552 470.364 312.856C469.548 313.144 468.62 313.288 467.58 313.288C466.764 313.288 466.036 313.2 465.396 313.024C464.756 312.848 464.188 312.616 463.692 312.328C463.212 312.024 462.788 311.68 462.42 311.296C462.068 310.896 461.764 310.488 461.508 310.072L464.124 308.008C464.316 308.328 464.516 308.632 464.724 308.92C464.948 309.208 465.196 309.464 465.468 309.688C465.756 309.896 466.068 310.064 466.404 310.192C466.756 310.304 467.156 310.36 467.604 310.36C468.5 310.36 469.172 310.12 469.62 309.64C470.084 309.144 470.316 308.488 470.316 307.672V307.48C470.316 306.696 470.084 306.08 469.62 305.632C469.156 305.184 468.516 304.96 467.7 304.96C467.028 304.96 466.468 305.096 466.02 305.368C465.588 305.624 465.26 305.88 465.036 306.136L462.084 305.728L462.708 296.248H473.1V299.392Z" fill="#B6C8DD"/>
  <defs>
    <linearGradient id="paint0_linear" x1="270.5" y1="18" x2="270.5" y2="443" gradientUnits="userSpaceOnUse">
      <stop stop-color="#1E1D58" stop-opacity="0.01"/>
      <stop offset="1" stop-color="#020822" stop-opacity="0.01"/>
    </linearGradient>
  </defs>
</svg>
